<svg width="355" height="71" viewBox="0 0 355 71" fill="none" xmlns="http://www.w3.org/2000/svg">
<path d="M30.9601 56.304C32.4481 56.304 33.8161 56.064 35.0641 55.584L35.3521 55.44C38.2801 54.192 40.6321 51.696 42.4081 47.952C44.1841 44.16 45.0721 39.096 45.0721 32.76C45.0721 26.76 44.2561 21.648 42.6241 17.424C41.0401 13.2 38.9521 10.032 36.3601 7.91997C33.7681 5.80797 30.9601 4.75197 27.9361 4.75197C25.2961 4.75197 22.9201 5.59197 20.8081 7.27197C18.6961 8.95197 17.0161 11.544 15.7681 15.048C14.5201 18.552 13.8961 22.944 13.8961 28.224C13.8961 34.272 14.6881 39.408 16.2721 43.632C17.8561 47.856 19.9441 51.024 22.5361 53.136C25.1281 55.248 27.9361 56.304 30.9601 56.304ZM6.65039e-05 31.392C6.65039e-05 25.92 1.22407 21.12 3.67207 16.992C6.16807 12.816 9.67207 9.57597 14.1841 7.27197C18.7441 4.96797 24.0241 3.81597 30.0241 3.81597C35.7361 3.81597 40.7761 4.87197 45.1441 6.98397C49.5121 9.04797 52.8961 12.024 55.2961 15.912C57.7441 19.8 58.9681 24.384 58.9681 29.664C58.9681 36.48 57.0721 42.264 53.2801 47.016C49.4881 51.72 44.2801 54.816 37.6561 56.304L43.4881 58.464C49.2001 60.624 53.8801 62.184 57.5281 63.144C61.2241 64.152 64.4641 64.656 67.2481 64.656C69.4561 64.656 71.5681 64.416 73.5841 63.936C75.6481 63.456 78.2401 62.664 81.3601 61.56V62.208C75.1201 64.704 69.5281 66.744 64.5841 68.328C59.6881 69.96 55.7521 70.776 52.7761 70.776C49.1761 70.776 45.8401 69.96 42.7681 68.328C39.7441 66.696 36.4321 64.224 32.8321 60.912L28.8001 57.24C23.0881 57.24 18.0481 56.184 13.6801 54.072C9.36007 51.96 6.00007 48.96 3.60007 45.072C1.20007 41.184 6.65039e-05 36.624 6.65039e-05 31.392ZM71.7739 57.24C68.9899 57.24 66.7579 56.328 65.0779 54.504C63.3979 52.68 62.5579 50.112 62.5579 46.8V24.984L58.5259 23.832V23.472L74.2939 18.504H74.3659V44.568C74.3659 46.488 74.8219 47.952 75.7339 48.96C76.6939 49.92 77.9899 50.4 79.6219 50.4C80.7259 50.4 81.7579 50.208 82.7179 49.824C83.7259 49.44 84.7819 48.888 85.8859 48.168V24.984L81.5659 23.832V23.472L97.5499 18.504H97.6219V51.696H101.654V52.056L85.9579 57.24H85.8859V48.96C82.7179 51.696 80.0539 53.76 77.8939 55.152C75.7819 56.544 73.7419 57.24 71.7739 57.24ZM99.9259 55.8L104.03 54.36V25.416L99.9259 24.336V23.976L115.694 18.504H115.766V54.36L119.798 55.8V56.16H99.9259V55.8ZM109.862 16.2C107.798 16.2 106.142 15.648 104.894 14.544C103.694 13.392 103.094 11.928 103.094 10.152C103.094 8.27997 103.694 6.79197 104.894 5.68797C106.094 4.53597 107.75 3.95997 109.862 3.95997C111.926 3.95997 113.558 4.53597 114.758 5.68797C116.006 6.79197 116.63 8.27997 116.63 10.152C116.63 11.928 116.006 13.392 114.758 14.544C113.558 15.648 111.926 16.2 109.862 16.2ZM136.911 57.24C133.407 57.24 130.287 56.496 127.551 55.008C124.815 53.52 122.655 51.384 121.071 48.6C119.535 45.816 118.767 42.552 118.767 38.808C118.767 34.776 119.655 31.224 121.431 28.152C123.207 25.08 125.607 22.704 128.631 21.024C131.703 19.344 135.063 18.504 138.711 18.504C141.303 18.504 143.631 18.912 145.695 19.728C147.807 20.496 149.439 21.528 150.591 22.824C151.791 24.12 152.391 25.512 152.391 27C152.391 28.392 151.935 29.592 151.023 30.6C150.159 31.56 149.175 32.184 148.071 32.472C145.815 28.008 143.823 24.72 142.095 22.608C140.367 20.448 138.615 19.368 136.839 19.368C134.871 19.368 133.335 20.424 132.231 22.536C131.127 24.648 130.575 27.648 130.575 31.536C130.575 37.344 131.775 41.76 134.175 44.784C136.623 47.808 139.935 49.32 144.111 49.32C146.895 49.32 149.007 48.696 150.447 47.448C151.935 46.2 153.087 44.328 153.903 41.832L154.335 41.976C153.135 46.248 151.143 49.872 148.359 52.848C145.623 55.776 141.807 57.24 136.911 57.24ZM184.694 56.52C182.774 56.52 181.238 55.872 180.086 54.576C178.934 53.28 177.638 50.928 176.198 47.52L171.086 34.992H167.558V54.36L171.59 55.8V56.16H151.718V55.8L155.822 54.36V6.33597L151.718 5.25597V4.89597L167.486 -2.90871e-05H167.558V34.2H171.23L173.894 31.68C176.63 29.04 178.574 27 179.726 25.56C180.878 24.12 181.454 23.016 181.454 22.248C181.454 21.72 181.166 21.312 180.59 21.024C180.062 20.688 179.198 20.4 177.998 20.16L177.206 19.944V19.584H192.686V19.944L187.214 21.384L177.206 29.304L189.518 48.096C190.718 49.872 191.75 51.096 192.614 51.768C193.526 52.392 194.486 52.704 195.494 52.704C196.022 52.704 196.526 52.656 197.006 52.56C197.534 52.416 197.894 52.32 198.086 52.272V52.704L193.118 54.432C190.91 55.2 189.254 55.752 188.15 56.088C187.094 56.376 185.942 56.52 184.694 56.52ZM204.101 57.24C201.077 57.24 198.341 56.856 195.893 56.088L193.517 42.768H193.949C195.053 46.368 197.189 49.344 200.357 51.696C203.525 54 206.981 55.152 210.725 55.152C212.549 55.152 213.917 54.792 214.829 54.072C215.741 53.352 216.197 52.416 216.197 51.264C216.197 50.016 215.549 48.816 214.253 47.664C213.005 46.512 210.677 45.144 207.269 43.56L202.445 41.4C198.461 39.576 195.701 37.872 194.165 36.288C192.677 34.704 191.933 32.856 191.933 30.744C191.933 28.824 192.677 26.928 194.165 25.056C195.701 23.136 197.813 21.576 200.501 20.376C203.237 19.128 206.285 18.504 209.645 18.504C213.389 18.504 216.749 19.032 219.725 20.088V30.744H219.365C218.693 27.48 217.133 24.816 214.685 22.752C212.237 20.688 209.501 19.656 206.477 19.656C204.701 19.656 203.333 20.016 202.373 20.736C201.461 21.456 201.005 22.392 201.005 23.544C201.005 24.792 201.533 25.944 202.589 27C203.645 28.056 205.517 29.184 208.205 30.384L211.661 32.04C215.357 33.72 218.045 35.52 219.725 37.44C221.405 39.312 222.245 41.568 222.245 44.208C222.245 46.56 221.549 48.744 220.157 50.76C218.813 52.728 216.773 54.312 214.037 55.512C211.301 56.664 207.989 57.24 204.101 57.24ZM220.877 55.8L224.981 54.36V25.416L220.877 24.336V23.976L236.645 18.504H236.717V54.36L240.749 55.8V56.16H220.877V55.8ZM230.813 16.2C228.749 16.2 227.093 15.648 225.845 14.544C224.645 13.392 224.045 11.928 224.045 10.152C224.045 8.27997 224.645 6.79197 225.845 5.68797C227.045 4.53597 228.701 3.95997 230.813 3.95997C232.877 3.95997 234.509 4.53597 235.709 5.68797C236.957 6.79197 237.581 8.27997 237.581 10.152C237.581 11.928 236.957 13.392 235.709 14.544C234.509 15.648 232.877 16.2 230.813 16.2ZM239.215 55.8L243.319 54.36V6.33597L239.215 5.25597V4.89597L254.983 -2.90871e-05H255.055V54.36L259.087 55.8V56.16H239.215V55.8ZM257.337 21.168L254.601 19.944V19.584H274.257V19.944L270.513 21.168L281.169 43.2L283.041 39.024C285.777 33.072 287.145 28.68 287.145 25.848C287.145 24.12 286.665 22.824 285.705 21.96C284.793 21.096 283.449 20.496 281.673 20.16L280.809 19.944V19.584H295.065V19.944L292.329 21.168L275.481 57.24H275.337L257.337 21.168ZM307.974 57.24C304.422 57.24 301.23 56.472 298.398 54.936C295.614 53.4 293.43 51.24 291.846 48.456C290.31 45.672 289.542 42.456 289.542 38.808C289.542 34.776 290.43 31.224 292.206 28.152C293.982 25.08 296.382 22.704 299.406 21.024C302.43 19.344 305.742 18.504 309.342 18.504C313.71 18.504 317.19 19.488 319.782 21.456C322.422 23.376 323.886 25.776 324.174 28.656H301.494C301.398 29.808 301.35 30.72 301.35 31.392C301.35 37.392 302.574 41.88 305.022 44.856C307.47 47.832 310.926 49.32 315.39 49.32C318.27 49.32 320.454 48.72 321.942 47.52C323.43 46.272 324.606 44.376 325.47 41.832L325.902 41.976C322.974 52.152 316.998 57.24 307.974 57.24ZM312.87 27.504C312.63 25.152 312.006 23.208 310.998 21.672C309.99 20.136 308.766 19.368 307.326 19.368C305.79 19.368 304.518 20.112 303.51 21.6C302.502 23.088 301.83 25.224 301.494 28.008L312.87 27.504ZM323.337 55.8L327.441 54.36V25.416L323.337 24.336V23.976L339.105 18.504H339.177V27.072C341.241 24.384 343.185 22.296 345.009 20.808C346.833 19.272 348.633 18.504 350.409 18.504C351.753 18.504 352.833 18.96 353.649 19.872C354.513 20.784 354.945 22.032 354.945 23.616C354.945 25.632 354.321 27.264 353.073 28.512C351.873 27.792 350.505 27.192 348.969 26.712C347.433 26.232 345.993 25.992 344.649 25.992C342.441 25.992 340.617 26.664 339.177 28.008V54.36L345.081 55.8V56.16H323.337V55.8Z" fill="white"/>
</svg>
