<svg width="356" height="71" viewBox="0 0 356 71" fill="none" xmlns="http://www.w3.org/2000/svg">
<path d="M31.1089 56.3647C32.5969 56.3647 33.9649 56.1247 35.2129 55.6447L35.5009 55.5007C38.4289 54.2527 40.7809 51.7567 42.5569 48.0127C44.3329 44.2207 45.2209 39.1567 45.2209 32.8207C45.2209 26.8207 44.4049 21.7087 42.7729 17.4847C41.1889 13.2607 39.1009 10.0927 36.5089 7.98073C33.9169 5.86873 31.1089 4.81273 28.0849 4.81273C25.4449 4.81273 23.0689 5.65273 20.9569 7.33273C18.8449 9.01273 17.1649 11.6047 15.9169 15.1087C14.6689 18.6127 14.0449 23.0047 14.0449 28.2847C14.0449 34.3327 14.8369 39.4687 16.4209 43.6927C18.0049 47.9167 20.0929 51.0847 22.6849 53.1967C25.2769 55.3087 28.0849 56.3647 31.1089 56.3647ZM0.148926 31.4527C0.148926 25.9807 1.37293 21.1807 3.82093 17.0527C6.31693 12.8767 9.82093 9.63673 14.3329 7.33273C18.8929 5.02873 24.1729 3.87673 30.1729 3.87673C35.8849 3.87673 40.9249 4.93273 45.2929 7.04473C49.6609 9.10873 53.0449 12.0847 55.4449 15.9727C57.8929 19.8607 59.1169 24.4447 59.1169 29.7247C59.1169 36.5407 57.2209 42.3247 53.4289 47.0767C49.6369 51.7807 44.4289 54.8767 37.8049 56.3647L43.6369 58.5247C49.3489 60.6847 54.0289 62.2447 57.6769 63.2047C61.3729 64.2127 64.6129 64.7167 67.3969 64.7167C69.6049 64.7167 71.7169 64.4767 73.7329 63.9967C75.7969 63.5167 78.3889 62.7247 81.5089 61.6207V62.2687C75.2689 64.7647 69.6769 66.8047 64.7329 68.3887C59.8369 70.0207 55.9009 70.8367 52.9249 70.8367C49.3249 70.8367 45.9889 70.0207 42.9169 68.3887C39.8929 66.7567 36.5809 64.2847 32.9809 60.9727L28.9489 57.3007C23.2369 57.3007 18.1969 56.2447 13.8289 54.1327C9.50893 52.0207 6.14893 49.0207 3.74893 45.1327C1.34893 41.2447 0.148926 36.6847 0.148926 31.4527Z" fill="#002881"/>
<path d="M71.9228 57.3007C69.1388 57.3007 66.9068 56.3887 65.2268 54.5647C63.5468 52.7407 62.7068 50.1727 62.7068 46.8607V25.0447L58.6748 23.8927V23.5327L74.4428 18.5647H74.5148V44.6287C74.5148 46.5487 74.9708 48.0127 75.8828 49.0207C76.8428 49.9807 78.1388 50.4607 79.7708 50.4607C80.8748 50.4607 81.9068 50.2687 82.8668 49.8847C83.8748 49.5007 84.9308 48.9487 86.0348 48.2287V25.0447L81.7148 23.8927V23.5327L97.6988 18.5647H97.7708V51.7567H101.803V52.1167L86.1068 57.3007H86.0348V49.0207C82.8668 51.7567 80.2028 53.8207 78.0428 55.2127C75.9308 56.6047 73.8908 57.3007 71.9228 57.3007Z" fill="#002881"/>
<path d="M100.075 55.8607L104.179 54.4207V25.4767L100.075 24.3967V24.0367L115.843 18.5647H115.915V54.4207L119.947 55.8607V56.2207H100.075V55.8607ZM110.011 16.2607C107.947 16.2607 106.291 15.7087 105.043 14.6047C103.843 13.4527 103.243 11.9887 103.243 10.2127C103.243 8.34073 103.843 6.85273 105.043 5.74873C106.243 4.59673 107.899 4.02073 110.011 4.02073C112.075 4.02073 113.707 4.59673 114.907 5.74873C116.155 6.85273 116.779 8.34073 116.779 10.2127C116.779 11.9887 116.155 13.4527 114.907 14.6047C113.707 15.7087 112.075 16.2607 110.011 16.2607Z" fill="#002881"/>
<path d="M137.06 57.3007C133.556 57.3007 130.436 56.5567 127.7 55.0687C124.964 53.5807 122.804 51.4447 121.22 48.6607C119.684 45.8767 118.916 42.6127 118.916 38.8687C118.916 34.8367 119.804 31.2847 121.58 28.2127C123.356 25.1407 125.756 22.7647 128.78 21.0847C131.852 19.4047 135.212 18.5647 138.86 18.5647C141.452 18.5647 143.78 18.9727 145.844 19.7887C147.956 20.5567 149.588 21.5887 150.74 22.8847C151.94 24.1807 152.54 25.5727 152.54 27.0607C152.54 28.4527 152.084 29.6527 151.172 30.6607C150.308 31.6207 149.324 32.2447 148.22 32.5327C145.964 28.0687 143.972 24.7807 142.244 22.6687C140.516 20.5087 138.764 19.4287 136.988 19.4287C135.02 19.4287 133.484 20.4847 132.38 22.5967C131.276 24.7087 130.724 27.7087 130.724 31.5967C130.724 37.4047 131.924 41.8207 134.324 44.8447C136.772 47.8687 140.084 49.3807 144.26 49.3807C147.044 49.3807 149.156 48.7567 150.596 47.5087C152.084 46.2607 153.236 44.3887 154.052 41.8927L154.484 42.0367C153.284 46.3087 151.292 49.9327 148.508 52.9087C145.772 55.8367 141.956 57.3007 137.06 57.3007Z" fill="#002881"/>
<path d="M184.843 56.5807C182.923 56.5807 181.387 55.9327 180.235 54.6367C179.083 53.3407 177.787 50.9887 176.347 47.5807L171.235 35.0527H167.707V54.4207L171.739 55.8607V56.2207H151.867V55.8607L155.971 54.4207V6.39673L151.867 5.31673V4.95673L167.635 0.06073H167.707V34.2607H171.379L174.043 31.7407C176.779 29.1007 178.723 27.0607 179.875 25.6207C181.027 24.1807 181.603 23.0767 181.603 22.3087C181.603 21.7807 181.315 21.3727 180.739 21.0847C180.211 20.7487 179.347 20.4607 178.147 20.2207L177.355 20.0047V19.6447H192.835V20.0047L187.363 21.4447L177.355 29.3647L189.667 48.1567C190.867 49.9327 191.899 51.1567 192.763 51.8287C193.675 52.4527 194.635 52.7647 195.643 52.7647C196.171 52.7647 196.675 52.7167 197.155 52.6207C197.683 52.4767 198.043 52.3807 198.235 52.3327V52.7647L193.267 54.4927C191.059 55.2607 189.403 55.8127 188.299 56.1487C187.243 56.4367 186.091 56.5807 184.843 56.5807Z" fill="#002881"/>
<path d="M204.25 57.3007C201.226 57.3007 198.49 56.9167 196.042 56.1487L193.666 42.8287H194.098C195.202 46.4287 197.338 49.4047 200.506 51.7567C203.674 54.0607 207.13 55.2127 210.874 55.2127C212.698 55.2127 214.066 54.8527 214.978 54.1327C215.89 53.4127 216.346 52.4767 216.346 51.3247C216.346 50.0767 215.698 48.8767 214.402 47.7247C213.154 46.5727 210.826 45.2047 207.418 43.6207L202.594 41.4607C198.61 39.6367 195.85 37.9327 194.314 36.3487C192.826 34.7647 192.082 32.9167 192.082 30.8047C192.082 28.8847 192.826 26.9887 194.314 25.1167C195.85 23.1967 197.962 21.6367 200.65 20.4367C203.386 19.1887 206.434 18.5647 209.794 18.5647C213.538 18.5647 216.898 19.0927 219.874 20.1487V30.8047H219.514C218.842 27.5407 217.282 24.8767 214.834 22.8127C212.386 20.7487 209.65 19.7167 206.626 19.7167C204.85 19.7167 203.482 20.0767 202.522 20.7967C201.61 21.5167 201.154 22.4527 201.154 23.6047C201.154 24.8527 201.682 26.0047 202.738 27.0607C203.794 28.1167 205.666 29.2447 208.354 30.4447L211.81 32.1007C215.506 33.7807 218.194 35.5807 219.874 37.5007C221.554 39.3727 222.394 41.6287 222.394 44.2687C222.394 46.6207 221.698 48.8047 220.306 50.8207C218.962 52.7887 216.922 54.3727 214.186 55.5727C211.45 56.7247 208.138 57.3007 204.25 57.3007Z" fill="#002881"/>
<path d="M221.026 55.8607L225.13 54.4207V25.4767L221.026 24.3967V24.0367L236.794 18.5647H236.866V54.4207L240.898 55.8607V56.2207H221.026V55.8607ZM230.962 16.2607C228.898 16.2607 227.242 15.7087 225.994 14.6047C224.794 13.4527 224.194 11.9887 224.194 10.2127C224.194 8.34073 224.794 6.85273 225.994 5.74873C227.194 4.59673 228.85 4.02073 230.962 4.02073C233.026 4.02073 234.658 4.59673 235.858 5.74873C237.106 6.85273 237.73 8.34073 237.73 10.2127C237.73 11.9887 237.106 13.4527 235.858 14.6047C234.658 15.7087 233.026 16.2607 230.962 16.2607Z" fill="#002881"/>
<path d="M239.364 55.8607L243.468 54.4207V6.39673L239.364 5.31673V4.95673L255.132 0.06073H255.204V54.4207L259.236 55.8607V56.2207H239.364V55.8607Z" fill="#002881"/>
<path d="M257.485 21.2287L254.749 20.0047V19.6447H274.405V20.0047L270.661 21.2287L281.317 43.2607L283.189 39.0847C285.925 33.1327 287.293 28.7407 287.293 25.9087C287.293 24.1807 286.813 22.8847 285.853 22.0207C284.941 21.1567 283.597 20.5567 281.821 20.2207L280.957 20.0047V19.6447H295.213V20.0047L292.477 21.2287L275.629 57.3007H275.485L257.485 21.2287Z" fill="#002881"/>
<path d="M308.123 57.3007C304.571 57.3007 301.379 56.5327 298.547 54.9967C295.763 53.4607 293.579 51.3007 291.995 48.5167C290.459 45.7327 289.691 42.5167 289.691 38.8687C289.691 34.8367 290.579 31.2847 292.355 28.2127C294.131 25.1407 296.531 22.7647 299.555 21.0847C302.579 19.4047 305.891 18.5647 309.491 18.5647C313.859 18.5647 317.339 19.5487 319.931 21.5167C322.571 23.4367 324.035 25.8367 324.323 28.7167H301.643C301.547 29.8687 301.499 30.7807 301.499 31.4527C301.499 37.4527 302.723 41.9407 305.171 44.9167C307.619 47.8927 311.075 49.3807 315.539 49.3807C318.419 49.3807 320.603 48.7807 322.091 47.5807C323.579 46.3327 324.755 44.4367 325.619 41.8927L326.051 42.0367C323.123 52.2127 317.147 57.3007 308.123 57.3007ZM313.019 27.5647C312.779 25.2127 312.155 23.2687 311.147 21.7327C310.139 20.1967 308.915 19.4287 307.475 19.4287C305.939 19.4287 304.667 20.1727 303.659 21.6607C302.651 23.1487 301.979 25.2847 301.643 28.0687L313.019 27.5647Z" fill="#002881"/>
<path d="M323.486 55.8607L327.59 54.4207V25.4767L323.486 24.3967V24.0367L339.254 18.5647H339.326V27.1327C341.39 24.4447 343.334 22.3567 345.158 20.8687C346.982 19.3327 348.782 18.5647 350.558 18.5647C351.902 18.5647 352.982 19.0207 353.798 19.9327C354.662 20.8447 355.094 22.0927 355.094 23.6767C355.094 25.6927 354.47 27.3247 353.222 28.5727C352.022 27.8527 350.654 27.2527 349.118 26.7727C347.582 26.2927 346.142 26.0527 344.798 26.0527C342.59 26.0527 340.766 26.7247 339.326 28.0687V54.4207L345.23 55.8607V56.2207H323.486V55.8607Z" fill="#002881"/>
</svg>
